Coordinates
version=1
nRows=19
nColumns=24
inDegrees=yes

Units are S.I. units (second, meters, Newtons, ...)
Angles are in degrees.

endheader
time	pelvis_tilt	pelvis_list	pelvis_rotation	pelvis_tx	pelvis_ty	pelvis_tz	hip_flexion_r	hip_adduction_r	hip_rotation_r	knee_angle_r	ankle_angle_r	subtalar_angle_r	mtp_angle_r	hip_flexion_l	hip_adduction_l	hip_rotation_l	knee_angle_l	ankle_angle_l	subtalar_angle_l	mtp_angle_l	lumbar_extension	lumbar_bending	lumbar_rotation
      1.65333333	      6.24161467	      3.41009560	     -4.68784473	      0.50346084	      1.02859211	      0.32791067	     10.52864104	     -7.63839197	      0.75198543	    -66.84717569	     -1.97685623	     -2.43729575	      5.91502903	     -1.89544209	      9.18575078	      5.76420777	    -12.68101389	      2.76669657	    -20.71035598	     -9.76588876	    -20.15360319	      1.55971065	     -2.86945551
      1.65750000	      6.29940150	      3.26792967	     -4.47574819	      0.50798525	      1.02941266	      0.32736813	     10.91675540	     -7.45646512	      0.58594432	    -66.36279969	     -1.12679517	     -2.16089073	      5.68518771	     -2.46124493	      9.04855641	      5.97870768	    -12.24966542	      2.61450130	    -20.76420066	     -9.88567624	    -20.22765398	      1.81533841	     -3.17572679
      1.66166667	      6.32908131	      3.08362327	     -4.27867264	      0.51248012	      1.03018517	      0.32684993	     11.32068557	     -7.21039509	      0.45278624	    -65.81812907	     -0.36266641	     -1.91590237	      5.00425521	     -3.00511735	      8.86633888	      6.23718018	    -11.80703940	      2.47888699	    -20.91864273	    -10.19289056	    -20.29058579	      2.13950021	     -3.43189587
      1.66583333	      6.32130865	      2.91616121	     -4.07484959	      0.51697835	      1.03084770	      0.32635808	     11.75721676	     -6.98679021	      0.30217518	    -65.24305080	      0.40204111	     -1.71501664	      4.96011864	     -3.46084306	      8.67958861	      6.33123461	    -11.45710257	      2.47180196	    -20.76865705	    -10.21528715	    -20.30344268	      2.40321030	     -3.45010169
      1.67000000	      6.39733047	      2.77673539	     -3.89072792	      0.52146508	      1.03156722	      0.32588065	     12.09580894	     -6.80827654	      0.16766622	    -64.62636953	      1.12919361	     -1.40193780	      4.83180069	     -4.04466280	      8.53134014	      6.49261452	    -11.01862858	      2.44357815	    -20.69010185	    -10.26611519	    -20.39680852	      2.64903235	     -3.68066665
      1.67416667	      6.44123753	      2.62060363	     -3.69769569	      0.52593828	      1.03224387	      0.32541659	     12.44920319	     -6.60139918	      0.03000671	    -63.95361202	      1.80263868	     -1.22973357	      4.69215728	     -4.58525200	      8.35800590	      6.65149758	    -10.59535766	      2.36670969	    -20.66386536	    -10.31686421	    -20.46323507	      2.91474401	     -3.85980902
      1.67833333	      6.46527141	      2.46890297	     -3.50363828	      0.53038964	      1.03283912	      0.32498533	     12.81191570	     -6.39366535	     -0.10518667	    -63.24066965	      2.45210146	     -1.11176746	      4.59072646	     -5.08637512	      8.18180380	      6.77936466	    -10.20463176	      2.29544012	    -20.62418952	    -10.35147473	    -20.49653627	      3.14289169	     -3.98499351
      1.68250000	      6.50841672	      2.35019504	     -3.32487362	      0.53482741	      1.03339912	      0.32455781	     13.15431947	     -6.23067130	     -0.22914624	    -62.50468482	      3.05785944	     -0.98730910	      4.44486126	     -5.63010666	      8.04359791	      6.94928669	     -9.75707812	      2.20132434	    -20.61715636	    -10.39445120	    -20.56457367	      3.37157750	     -4.17958289
      1.68666667	      6.49373506	      2.24596479	     -3.12790691	      0.53925490	      1.03385036	      0.32411957	     13.54768924	     -6.08141421	     -0.36569693	    -61.73460422	      3.61216740	     -0.94934348	      3.44126440	     -6.12511452	      7.91962820	      7.23449556	     -9.27316041	      1.92817028	    -20.86246863	    -10.63910709	    -20.55758174	      3.58183839	     -4.36233670
      1.69083333	      6.53918413	      2.12199982	     -2.96200267	      0.54366550	      1.03434384	      0.32377405	     13.85758562	     -5.89918463	     -0.46674073	    -60.90892368	      4.14896103	     -0.93757391	      3.32547325	     -6.64342563	      7.76011418	      7.29203115	     -8.88021703	      1.95688844	    -20.65622649	    -10.65955042	    -20.63514187	      3.78592675	     -4.47947105
      1.69500000	      6.57399183	      2.01740981	     -2.78659572	      0.54805702	      1.03477205	      0.32342214	     14.16804292	     -5.74252771	     -0.57718448	    -60.04972943	      4.62981086	     -0.97846839	      3.18788757	     -7.15795417	      7.62080116	      7.41228406	     -8.46253418	      1.88633659	    -20.57876117	    -10.68153998	    -20.69455047	      3.97554839	     -4.63053109
      1.69916667	      6.56409967	      1.91317532	     -2.59943568	      0.55243838	      1.03511793	      0.32307938	     14.50812980	     -5.58295942	     -0.69609170	    -59.14746590	      5.08852867	     -1.07027245	      3.10592912	     -7.60575885	      7.47457655	      7.51457617	     -8.08049827	      1.80622080	    -20.50688849	    -10.69286526	    -20.69804233	      4.15126526	     -4.71920442
      1.70333333	      6.58929570	      1.81271418	     -2.42115269	      0.55681791	      1.03546604	      0.32275472	     14.79539526	     -5.43066756	     -0.81031746	    -58.20348938	      5.48289872	     -1.20740664	      3.01409980	     -8.10713996	      7.33256813	      7.64010411	     -7.66420438	      1.71696094	    -20.45083468	    -10.70239775	    -20.74401116	      4.33290430	     -4.85216653
      1.70750000	      6.58920829	      1.73521250	     -2.24688389	      0.56118079	      1.03573424	      0.32245786	     15.10308660	     -5.30106046	     -0.91471505	    -57.23380276	      5.83632652	     -1.38903382	      2.92066848	     -8.57838851	      7.21068284	      7.77016718	     -7.24752730	      1.61798068	    -20.40238974	    -10.70963442	    -20.76696673	      4.48844476	     -4.98447049
      1.71166667	      6.63136548	      1.68083934	     -2.08104841	      0.56552875	      1.03601280	      0.32217842	     15.35453306	     -5.19851489	     -1.01062748	    -56.23168982	      6.11432007	     -1.63042048	      2.65736927	     -9.12330883	      7.11567683	      7.97320485	     -6.76572045	      1.44331405	    -20.46698115	    -10.72362861	    -20.84012597	      4.61728928	     -5.21016254
      1.71583333	      6.60607860	      1.60639341	     -1.90416644	      0.56988384	      1.03615581	      0.32189756	     15.65702365	     -5.07601875	     -1.12232489	    -55.18801710	      6.40513028	     -1.86013667	      2.55568859	     -9.54752649	      6.99024746	      8.06426983	     -6.38994652	      1.39186456	    -20.39111970	    -10.72600408	    -20.82100304	      4.76883341	     -5.27893866
      1.72000000	      6.59993215	      1.54899421	     -1.73247045	      0.57422685	      1.03629775	      0.32164968	     15.92374285	     -4.96787122	     -1.22164849	    -54.10723225	      6.62924107	     -2.17450456	      2.44273399	    -10.00308828	      6.88020129	      8.17798101	     -5.98589868	      1.30707738	    -20.32590809	    -10.72661519	    -20.82976975	      4.89307466	     -5.40863440
      1.72416667	      6.58671748	      1.51005788	     -1.56483942	      0.57855745	      1.03637705	      0.32141429	     16.18887160	     -4.88313197	     -1.32038782	    -53.00345724	      6.82448784	     -2.50937906	      2.32434615	    -10.45079923	      6.78797925	      8.29589998	     -5.57826579	      1.21738458	    -20.26958604	    -10.72531456	    -20.83658751	      4.99971439	     -5.54703229
      1.72833333	      6.58017969	      1.47814451	     -1.41369956	      0.58289118	      1.03641331	      0.32121346	     16.43681791	     -4.80425425	     -1.40641574	    -51.87120355	      6.94925649	     -2.88251822	      2.17022713	    -10.91604336	      6.70315584	      8.41890998	     -5.15012349	      1.14294060	    -20.23999756	    -10.72045195	    -20.84702975	      5.09986338	     -5.70505978
